<svg xmlns="http://www.w3.org/2000/svg" width="512" height="512" viewBox="0 0 512 512" version="1.1">
	<path d="M 30.024 1.603 C 16.073 5.352, 5.144 16.469, 1.526 30.592 C 0.148 35.972, 0.007 60.941, 0.239 258.567 L 0.500 480.500 2.748 486 C 7.046 496.517, 16.937 506.075, 27.238 509.666 C 32.281 511.424, 41.811 511.500, 256 511.500 C 470.189 511.500, 479.719 511.424, 484.762 509.666 C 495.806 505.816, 506.508 494.830, 509.575 484.194 C 510.478 481.062, 511.618 477.719, 512.109 476.764 C 513.153 474.728, 513.351 33.316, 512.307 34.360 C 511.926 34.741, 511.009 32.689, 510.270 29.801 C 506.756 16.072, 495.753 5.253, 481.540 1.552 C 476.237 0.171, 451.321 0.007, 255.540 0.066 C 65.137 0.123, 34.762 0.330, 30.024 1.603 M 60 27.814 C 43.482 32.132, 30.088 46.369, 27.005 62.886 C 25.624 70.288, 25.624 441.712, 27.005 449.114 C 29.262 461.206, 38.281 473.688, 49.331 480.009 C 60.489 486.393, 49.280 486.085, 259 485.778 C 437.747 485.517, 449.818 485.391, 454.649 483.741 C 466.865 479.569, 478.155 468.687, 483.181 456.243 L 485.500 450.500 485.765 259.558 C 485.940 133.500, 485.685 66.727, 485.015 63.058 C 482.774 50.792, 473.299 37.746, 462.274 31.745 C 451.215 25.727, 462.106 26.026, 255.500 26.072 C 80.963 26.112, 66.003 26.245, 60 27.814 M 0.491 256 C 0.491 377.825, 0.608 427.663, 0.750 366.750 C 0.892 305.838, 0.892 206.163, 0.750 145.250 C 0.608 84.338, 0.491 134.175, 0.491 256 M 66.305 36.999 C 59.165 38.056, 52.351 41.563, 46.957 46.957 C 41.346 52.569, 38.186 58.932, 36.916 67.180 C 36.304 71.158, 36.046 142.808, 36.222 260.500 C 36.480 434.190, 36.622 447.803, 38.210 451.761 C 42.351 462.084, 50.599 470.211, 60.500 473.725 C 65.222 475.401, 76.122 475.500, 256.500 475.500 C 434.353 475.500, 447.793 475.382, 451.761 473.790 C 462.084 469.649, 470.211 461.401, 473.725 451.500 C 475.401 446.778, 475.500 435.899, 475.500 256 C 475.500 76.101, 475.401 65.222, 473.725 60.500 C 470.211 50.599, 462.084 42.351, 451.761 38.210 C 447.798 36.620, 434.334 36.491, 259.500 36.365 C 156.100 36.290, 69.162 36.575, 66.305 36.999 M 121 255.989 L 121 381 151 381 L 181 381 181 347.051 C 181 324.759, 180.126 295.503, 178.453 261.845 C 177.053 233.654, 176.040 209.571, 176.203 208.327 C 176.367 207.083, 187.707 239.013, 201.403 279.283 C 215.100 319.552, 228.537 358.913, 231.263 366.750 L 236.218 381 255.997 381 L 275.775 381 281.732 363.750 C 285.008 354.262, 298.414 314.893, 311.523 276.262 C 324.632 237.631, 335.502 206.169, 335.679 206.346 C 335.856 206.523, 334.651 234.037, 333.001 267.487 C 331.281 302.336, 330 339.557, 330 354.653 L 330 381 360.500 381 L 391 381 391 256 L 391 131 351.535 131 C 314.948 131, 312.007 131.128, 311.200 132.750 C 310.721 133.713, 298.221 172.412, 283.422 218.750 C 268.623 265.087, 256.280 303, 255.994 303 C 255.707 303, 243.089 264.413, 227.952 217.250 L 200.432 131.500 160.716 131.239 L 121 130.977 121 255.989" stroke="none" fill="black" fill-rule="evenodd"/>
</svg>